<svg xmlns="http://www.w3.org/2000/svg" viewBox="0 0 18.46 18.46"><defs><style>.cls-1{fill:#1a1a1a;}</style></defs><g id="Layer_2" data-name="Layer 2"><g id="Layer_1-2" data-name="Layer 1"><path class="cls-1" d="M9.23,0a9.23,9.23,0,1,0,9.23,9.23A9.23,9.23,0,0,0,9.23,0Zm0,17A7.79,7.79,0,1,1,17,9.23,7.79,7.79,0,0,1,9.23,17Z"/><path class="cls-1" d="M10.82,7.24,9.17,13A3,3,0,0,0,9,13.6a.23.23,0,0,0,.07.16.22.22,0,0,0,.15.08.41.41,0,0,0,.27-.12,5.09,5.09,0,0,0,.87-1.08l.27.16C9.87,14.21,9,14.91,8.1,14.91a1.16,1.16,0,0,1-.84-.29A1,1,0,0,1,7,13.88a2.87,2.87,0,0,1,.14-.76L8.21,9.28a3.21,3.21,0,0,0,.16-.83.42.42,0,0,0-.15-.32A.62.62,0,0,0,7.8,8H7.51l.1-.32,2.73-.44Zm-.5-3.7A1.18,1.18,0,0,1,11.5,4.73a1.13,1.13,0,0,1-.34.83,1.17,1.17,0,0,1-1.67,0,1.13,1.13,0,0,1-.34-.83,1.14,1.14,0,0,1,.34-.84A1.13,1.13,0,0,1,10.32,3.54Z"/></g></g></svg>