<svg xmlns="http://www.w3.org/2000/svg" viewBox="0 0 109.64 13.68"><defs><style>.cls-1{fill:none;}.cls-1,.cls-2{stroke:#1a1a1a;stroke-linejoin:round;stroke-width:0.68px;}.cls-2{fill:#fcee21;}</style></defs><g id="Layer_2" data-name="Layer 2"><g id="Layer_1-2" data-name="Layer 1"><path class="cls-1" d="M109.24,5.21a1.17,1.17,0,0,0-1.13-.82h-3.38l-1.07-3.23a1.17,1.17,0,0,0-1.13-.82h0a1.17,1.17,0,0,0-1.13.83l-1,3.22H97a1.2,1.2,0,0,0-.7,2.16l2.76,2L98,11.77a1.21,1.21,0,0,0,1.13,1.57,1.22,1.22,0,0,0,.7-.23l2.76-2,2.74,2a1.19,1.19,0,0,0,1.83-1.33l-1-3.24,2.73-2a1.17,1.17,0,0,0,.43-1.34Z"/><path class="cls-2" d="M85.39,5.21a1.18,1.18,0,0,0-1.13-.82H80.87L79.81,1.16A1.18,1.18,0,0,0,78.68.34h0a1.18,1.18,0,0,0-1.13.83l-1,3.22H73.1a1.19,1.19,0,0,0-.7,2.16l2.76,2L74.1,11.77a1.16,1.16,0,0,0,.42,1.33,1.16,1.16,0,0,0,1.4,0l2.77-2,2.73,2a1.2,1.2,0,0,0,1.84-1.33l-1-3.24,2.74-2a1.2,1.2,0,0,0,.43-1.34Z"/><path class="cls-2" d="M61.53,5.21a1.17,1.17,0,0,0-1.13-.82H57L56,1.16A1.16,1.16,0,0,0,54.82.34h0a1.17,1.17,0,0,0-1.13.83l-1,3.22H49.24a1.2,1.2,0,0,0-.7,2.16l2.76,2-1.06,3.23a1.18,1.18,0,0,0,.43,1.33,1.16,1.16,0,0,0,.7.24,1.22,1.22,0,0,0,.7-.23l2.77-2,2.73,2a1.19,1.19,0,0,0,1.83-1.33l-1-3.24,2.73-2a1.17,1.17,0,0,0,.43-1.34Z"/><path class="cls-2" d="M37.68,5.21a1.18,1.18,0,0,0-1.13-.82H33.16L32.1,1.16A1.18,1.18,0,0,0,31,.34h0a1.18,1.18,0,0,0-1.13.83l-1,3.22H25.39a1.19,1.19,0,0,0-1.14.83,1.17,1.17,0,0,0,.44,1.33l2.76,2-1.06,3.23a1.21,1.21,0,0,0,1.13,1.57,1.24,1.24,0,0,0,.7-.23l2.76-2,2.73,2a1.2,1.2,0,0,0,1.84-1.33l-1-3.24,2.74-2a1.2,1.2,0,0,0,.43-1.34Z"/><path class="cls-2" d="M13.82,5.21a1.17,1.17,0,0,0-1.13-.82H9.31L8.24,1.16A1.16,1.16,0,0,0,7.11.34h0A1.17,1.17,0,0,0,6,1.17l-1,3.22H1.53a1.2,1.2,0,0,0-.7,2.16l2.77,2L2.53,11.77A1.18,1.18,0,0,0,3,13.1a1.16,1.16,0,0,0,.7.24,1.2,1.2,0,0,0,.7-.23l2.77-2,2.73,2a1.17,1.17,0,0,0,1.4,0,1.19,1.19,0,0,0,.44-1.33l-1-3.24,2.74-2a1.18,1.18,0,0,0,.42-1.34Z"/></g></g></svg>